<svg width="356" height="90" viewBox="0 0 356 90" fill="none" xmlns="http://www.w3.org/2000/svg">
<path fill-rule="evenodd" clip-rule="evenodd" d="M77.5712 47.3887C79.4138 46.326 79.4138 43.6667 77.5712 42.604L76.6414 42.0677L42.8028 42.0677L42.8028 67.4418L77.5712 47.3887ZM17.003 82.3223L4.39548 89.5938C2.55432 90.6557 0.253906 89.3269 0.253906 87.2014L0.253908 42.0677H17.003L17.003 82.3223ZM23.7596 78.4253L23.7596 38.6894V35.3111L20.3813 35.3111H0.253909L0.253909 23.2074L20.3813 23.2074L39.4245 23.2074H43.9411L64.9267 35.3111H39.4245H36.0462V38.6894L36.0462 71.3388L23.7596 78.4253ZM32.2264 16.4507L4.39548 0.398905C2.55432 -0.663013 0.25391 0.665795 0.25391 2.79125L0.253909 16.4507L20.3813 16.4507H32.2264Z" fill="url(#paint0_linear_1235_1447)"/>
<path fill-rule="evenodd" clip-rule="evenodd" d="M34.1777 82.3146C41.3471 87.1467 49.9844 89.9673 59.2805 89.9673C84.1173 89.9673 104.252 69.8331 104.252 44.9964C104.252 20.1596 84.1173 0.0253906 59.2805 0.0253906C49.9854 0.0253906 41.3489 2.84545 34.1799 7.67666L42.5596 12.5147C47.5697 9.93036 53.2547 8.47116 59.2805 8.47116C79.4529 8.47116 95.8057 24.824 95.8057 44.9964C95.8057 65.1687 79.4529 81.5216 59.2805 81.5216C53.2537 81.5216 47.5678 80.0619 42.5571 77.4767L34.1777 82.3146Z" fill="#ECECEC"/>
<path fill-rule="evenodd" clip-rule="evenodd" d="M307.215 19.0113H295.579L277.477 38.81V4.30371H267.618V60.7906H277.477V50.366L283.376 44.1435L295.174 60.7906H306.65L290.003 37.6786L307.215 19.0113ZM161.081 53.356C162.778 53.356 164.314 52.7095 165.203 51.8206L168.031 58.4471C165.687 60.4674 162.293 61.7603 159.142 61.7603C152.192 61.7603 147.343 56.75 147.343 49.7195V27.1732V19.0113V7.53615H156.96V19.0113H166.415V27.1732H156.96V48.5073C156.96 51.3357 158.738 53.356 161.081 53.356ZM137.077 60.7906H127.218V19.0113H137.077V60.7906ZM195.159 53.0327C189.179 53.0327 184.815 48.9922 183.603 43.2546H215.119C215.119 27.8197 207.604 18.0416 194.674 18.0416C182.795 18.0416 173.421 27.254 173.421 39.7797C173.421 52.6287 183.28 61.7603 195.24 61.7603C201.301 61.7603 208.574 59.1744 212.21 55.2955L205.988 48.8306C203.644 51.2549 199.038 53.0327 195.159 53.0327ZM195.078 26.7692C200.977 26.7692 204.533 30.4865 205.664 35.7392H183.684C185.138 30.244 189.583 26.7692 195.078 26.7692ZM260.03 54.7298C255.989 59.0128 250.413 61.7603 243.787 61.7603C231.746 61.7603 221.483 51.7398 221.483 39.8605C221.483 30.9568 227.249 23.1426 235.275 19.7867L243.464 24.5857L252.007 19.5797C254.985 20.7654 257.627 22.581 259.787 24.8297L253.161 30.6481C250.898 28.143 247.423 26.4459 243.868 26.4459C236.999 26.4459 231.261 32.5876 231.261 39.8605C231.261 47.2143 236.999 53.356 243.868 53.356C247.504 53.356 251.06 51.659 253.403 48.9922L260.03 54.7298ZM355.744 39.8605C355.744 51.7398 345.481 61.7603 333.36 61.7603C321.238 61.7603 310.975 51.7398 310.975 39.8605C310.975 27.9813 321.238 18.0416 333.36 18.0416C345.481 18.0416 355.744 27.9813 355.744 39.8605ZM320.591 39.8605C320.591 47.2143 326.41 53.356 333.36 53.356C340.229 53.356 346.047 47.2143 346.047 39.8605C346.047 32.5876 340.229 26.4459 333.36 26.4459C326.41 26.4459 320.591 32.5876 320.591 39.8605Z" fill="#ECECEC"/>
<path d="M243.49 18.6855L231.052 11.4012L255.929 11.4012L243.49 18.6855Z" fill="#ECECEC"/>
<path d="M137.852 7.10135C137.852 10.0914 135.347 12.7581 132.276 12.7581C129.125 12.7581 126.62 10.0914 126.62 7.10135C126.62 4.11134 129.125 1.52539 132.276 1.52539C135.347 1.52539 137.852 4.11134 137.852 7.10135Z" fill="#01B0FF"/>
<path d="M132.197 83.4736L126.892 71.6276H128.507L133.413 82.6979H132.511L137.459 71.6276H138.99L133.685 83.4736H132.197ZM141.454 83.4736V71.6276H142.964V83.4736H141.454ZM147.372 83.4736V71.6276H152.341C153.682 71.6276 154.836 71.8792 155.8 72.3824C156.765 72.8716 157.505 73.5635 158.023 74.458C158.554 75.3386 158.819 76.366 158.819 77.5401C158.819 78.7282 158.554 79.7696 158.023 80.6641C157.505 81.5447 156.765 82.2366 155.8 82.7398C154.836 83.229 153.682 83.4736 152.341 83.4736H147.372ZM148.881 82.2156H152.278C153.34 82.2156 154.249 82.02 155.003 81.6286C155.758 81.2372 156.331 80.6921 156.723 79.9932C157.114 79.2943 157.31 78.4766 157.31 77.5401C157.31 76.6036 157.114 75.7859 156.723 75.087C156.331 74.3881 155.758 73.85 155.003 73.4726C154.249 73.0812 153.34 72.8855 152.278 72.8855H148.881V82.2156ZM163.29 76.8482H169.664V78.0852H163.29V76.8482ZM163.541 82.2156H170.649V83.4736H162.032V71.6276H170.397V72.8855H163.541V82.2156ZM179.024 83.5994C177.822 83.5994 176.739 83.3408 175.774 82.8237C174.81 82.2925 174.048 81.5727 173.489 80.6641C172.944 79.7416 172.671 78.7003 172.671 77.5401C172.671 76.38 172.944 75.3456 173.489 74.4371C174.048 73.5285 174.81 72.8087 175.774 72.2775C176.739 71.7464 177.822 71.4808 179.024 71.4808C180.24 71.4808 181.323 71.7464 182.274 72.2775C183.238 72.8087 183.993 73.5285 184.538 74.4371C185.097 75.3456 185.377 76.38 185.377 77.5401C185.377 78.7003 185.097 79.7416 184.538 80.6641C183.993 81.5727 183.238 82.2925 182.274 82.8237C181.323 83.3408 180.24 83.5994 179.024 83.5994ZM179.024 82.2995C179.961 82.2995 180.792 82.0968 181.519 81.6915C182.246 81.2722 182.819 80.7061 183.238 79.9932C183.658 79.2664 183.867 78.4487 183.867 77.5401C183.867 76.6316 183.651 75.8209 183.217 75.108C182.798 74.3951 182.225 73.836 181.498 73.4307C180.785 73.0113 179.961 72.8017 179.024 72.8017C178.102 72.8017 177.27 73.0113 176.529 73.4307C175.802 73.836 175.229 74.3951 174.81 75.108C174.39 75.8209 174.181 76.6316 174.181 77.5401C174.181 78.4487 174.39 79.2664 174.81 79.9932C175.229 80.7061 175.802 81.2722 176.529 81.6915C177.27 82.0968 178.102 82.2995 179.024 82.2995ZM196.864 83.5994C196.067 83.5994 195.354 83.4666 194.725 83.2011C194.096 82.9355 193.6 82.5651 193.237 82.0898C192.873 81.6146 192.691 81.0695 192.691 80.4545C192.691 79.7136 192.957 79.0427 193.488 78.4417C194.019 77.8267 194.928 77.1977 196.214 76.5547C196.913 76.1913 197.465 75.8768 197.87 75.6112C198.276 75.3316 198.562 75.0661 198.73 74.8145C198.898 74.5489 198.981 74.2693 198.981 73.9758C198.981 73.5565 198.842 73.221 198.562 72.9694C198.283 72.7178 197.87 72.592 197.325 72.592C196.738 72.592 196.284 72.7388 195.962 73.0323C195.655 73.3119 195.501 73.6683 195.501 74.1016C195.501 74.4371 195.592 74.7586 195.774 75.0661C195.955 75.3736 196.34 75.8139 196.927 76.387L203.301 82.7398L202.462 83.6623L195.753 76.995C195.152 76.3939 194.739 75.8838 194.516 75.4644C194.306 75.0311 194.201 74.5838 194.201 74.1226C194.201 73.5914 194.327 73.1302 194.578 72.7388C194.83 72.3474 195.186 72.0469 195.648 71.8372C196.123 71.6276 196.675 71.5227 197.304 71.5227C198.185 71.5227 198.884 71.7394 199.401 72.1727C199.932 72.592 200.197 73.1791 200.197 73.9339C200.197 74.3812 200.086 74.7935 199.862 75.1709C199.652 75.5483 199.303 75.9187 198.814 76.2821C198.324 76.6455 197.675 77.0369 196.864 77.4562C196.165 77.8197 195.613 78.1621 195.207 78.4836C194.802 78.7911 194.516 79.0986 194.348 79.4061C194.18 79.6997 194.096 80.0281 194.096 80.3916C194.096 80.9926 194.355 81.4888 194.872 81.8802C195.389 82.2576 196.074 82.4463 196.927 82.4463C197.695 82.4463 198.387 82.2785 199.002 81.9431C199.631 81.6076 200.163 81.1114 200.596 80.4545C201.029 79.7835 201.351 78.9588 201.56 77.9804L202.713 78.3159C202.462 79.4481 202.063 80.4125 201.518 81.2093C200.973 81.992 200.309 82.5861 199.527 82.9914C198.744 83.3968 197.856 83.5994 196.864 83.5994ZM212.389 77.2885H218.763V78.5675H212.389V77.2885ZM212.641 83.4736H211.131V71.6276H219.497V72.8855H212.641V83.4736ZM227.407 83.5994C226.205 83.5994 225.121 83.3408 224.157 82.8237C223.192 82.2925 222.431 81.5727 221.872 80.6641C221.326 79.7416 221.054 78.7003 221.054 77.5401C221.054 76.38 221.326 75.3456 221.872 74.4371C222.431 73.5285 223.192 72.8087 224.157 72.2775C225.121 71.7464 226.205 71.4808 227.407 71.4808C228.623 71.4808 229.706 71.7464 230.657 72.2775C231.621 72.8087 232.376 73.5285 232.921 74.4371C233.48 75.3456 233.76 76.38 233.76 77.5401C233.76 78.7003 233.48 79.7416 232.921 80.6641C232.376 81.5727 231.621 82.2925 230.657 82.8237C229.706 83.3408 228.623 83.5994 227.407 83.5994ZM227.407 82.2995C228.343 82.2995 229.175 82.0968 229.902 81.6915C230.629 81.2722 231.202 80.7061 231.621 79.9932C232.04 79.2664 232.25 78.4487 232.25 77.5401C232.25 76.6316 232.033 75.8209 231.6 75.108C231.181 74.3951 230.608 73.836 229.881 73.4307C229.168 73.0113 228.343 72.8017 227.407 72.8017C226.484 72.8017 225.653 73.0113 224.912 73.4307C224.185 73.836 223.612 74.3951 223.192 75.108C222.773 75.8209 222.563 76.6316 222.563 77.5401C222.563 78.4487 222.773 79.2664 223.192 79.9932C223.612 80.7061 224.185 81.2722 224.912 81.6915C225.653 82.0968 226.484 82.2995 227.407 82.2995ZM238.821 83.4736V72.8855H234.648V71.6276H244.502V72.8855H240.33V83.4736H238.821ZM251.731 83.5994C250.529 83.5994 249.446 83.3408 248.481 82.8237C247.517 82.2925 246.755 81.5727 246.196 80.6641C245.651 79.7416 245.378 78.7003 245.378 77.5401C245.378 76.38 245.651 75.3456 246.196 74.4371C246.755 73.5285 247.517 72.8087 248.481 72.2775C249.446 71.7464 250.529 71.4808 251.731 71.4808C252.947 71.4808 254.03 71.7464 254.981 72.2775C255.945 72.8087 256.7 73.5285 257.245 74.4371C257.804 75.3456 258.084 76.38 258.084 77.5401C258.084 78.7003 257.804 79.7416 257.245 80.6641C256.7 81.5727 255.945 82.2925 254.981 82.8237C254.03 83.3408 252.947 83.5994 251.731 83.5994ZM251.731 82.2995C252.668 82.2995 253.499 82.0968 254.226 81.6915C254.953 81.2722 255.526 80.7061 255.945 79.9932C256.365 79.2664 256.574 78.4487 256.574 77.5401C256.574 76.6316 256.358 75.8209 255.924 75.108C255.505 74.3951 254.932 73.836 254.205 73.4307C253.492 73.0113 252.668 72.8017 251.731 72.8017C250.809 72.8017 249.977 73.0113 249.236 73.4307C248.509 73.836 247.936 74.3951 247.517 75.108C247.098 75.8209 246.888 76.6316 246.888 77.5401C246.888 78.4487 247.098 79.2664 247.517 79.9932C247.936 80.7061 248.509 81.2722 249.236 81.6915C249.977 82.0968 250.809 82.2995 251.731 82.2995ZM268.103 80.5593L268.04 78.7562L275.085 71.6276H276.783L271.5 77.1208L270.661 78.0014L268.103 80.5593ZM266.782 83.4736V71.6276H268.292V83.4736H266.782ZM275.337 83.4736L270.305 77.7078L271.29 76.5966L277.14 83.4736H275.337ZM279.559 83.4736V71.6276H281.068V82.2156H287.673V83.4736H279.559ZM294.682 83.5994C293.634 83.5994 292.732 83.4037 291.977 83.0124C291.237 82.607 290.663 82.02 290.258 81.2512C289.853 80.4824 289.65 79.5459 289.65 78.4417V71.6276H291.16V78.3997C291.16 79.6997 291.467 80.6781 292.082 81.335C292.697 81.978 293.564 82.2995 294.682 82.2995C295.814 82.2995 296.688 81.978 297.303 81.335C297.918 80.6781 298.225 79.6997 298.225 78.3997V71.6276H299.693V78.4417C299.693 79.5459 299.49 80.4824 299.085 81.2512C298.694 82.02 298.121 82.607 297.366 83.0124C296.625 83.4037 295.73 83.5994 294.682 83.5994ZM303.965 83.4736V71.6276H309.228C310.598 71.6276 311.653 71.8931 312.394 72.4243C313.148 72.9554 313.526 73.7032 313.526 74.6677C313.526 75.6322 313.197 76.373 312.54 76.8902C311.883 77.4073 311.031 77.6659 309.982 77.6659L310.276 77.1837C311.52 77.1837 312.478 77.4493 313.148 77.9804C313.833 78.4976 314.176 79.2664 314.176 80.2867C314.176 81.2931 313.791 82.0759 313.023 82.635C312.254 83.1941 311.101 83.4736 309.563 83.4736H303.965ZM305.475 82.2995H309.521C310.542 82.2995 311.317 82.1318 311.849 81.7963C312.38 81.4469 312.645 80.9087 312.645 80.1819C312.645 79.4411 312.38 78.9029 311.849 78.5675C311.317 78.232 310.542 78.0643 309.521 78.0643H305.223V76.8902H309.123C310.045 76.8902 310.758 76.7154 311.261 76.366C311.779 76.0165 312.037 75.5064 312.037 74.8354C312.037 74.1645 311.779 73.6613 311.261 73.3258C310.758 72.9764 310.045 72.8017 309.123 72.8017H305.475V82.2995Z" fill="#ECECEC" fill-opacity="0.6"/>
<defs>
<linearGradient id="paint0_linear_1235_1447" x1="-8.79651" y1="78.7246" x2="80.0143" y2="91.7947" gradientUnits="userSpaceOnUse">
<stop stop-color="#00C6FF"/>
<stop offset="1" stop-color="#0072FF"/>
</linearGradient>
</defs>
</svg>
