<svg width="33" height="33" viewBox="0 0 33 33" fill="none" xmlns="http://www.w3.org/2000/svg">
<path d="M17.5244 28.1628H9.09771C4.88437 28.1628 3.48438 25.3628 3.48438 22.5495V11.3228C3.48438 7.10947 4.88437 5.70947 9.09771 5.70947H17.5244C21.7377 5.70947 23.1377 7.10947 23.1377 11.3228V22.5495C23.1377 26.7628 21.7244 28.1628 17.5244 28.1628Z" stroke="#3A424F" stroke-width="2" stroke-linecap="round" stroke-linejoin="round"/>
<path d="M26.8453 23.7362L23.1387 21.1362V12.7229L26.8453 10.1229C28.6587 8.85621 30.152 9.62954 30.152 11.8562V22.0162C30.152 24.2429 28.6587 25.0162 26.8453 23.7362Z" stroke="#3A424F" stroke-width="2" stroke-linecap="round" stroke-linejoin="round"/>
<path d="M16.1523 15.6025C17.2569 15.6025 18.1523 14.7071 18.1523 13.6025C18.1523 12.498 17.2569 11.6025 16.1523 11.6025C15.0478 11.6025 14.1523 12.498 14.1523 13.6025C14.1523 14.7071 15.0478 15.6025 16.1523 15.6025Z" stroke="#3A424F" stroke-width="2" stroke-linecap="round" stroke-linejoin="round"/>
</svg>
