<svg width="15" height="20" viewBox="0 0 15 20" fill="none" xmlns="http://www.w3.org/2000/svg">
<path fill-rule="evenodd" clip-rule="evenodd" d="M11.4546 3.98026L8.24879 5.85887L5.17555 4.05792C2.16358 5.31729 0 8.24964 0 11.5909C0 16.0487 3.85131 19.809 8.36978 19.809C10.8565 19.809 12.9489 18.778 14.4652 17.1707L11.9785 15.0176C11.0991 16.0184 9.76475 16.6552 8.40011 16.6552C5.82246 16.6552 3.66936 14.3505 3.66936 11.5909C3.66936 8.86159 5.82246 6.55686 8.40011 6.55686C9.73442 6.55686 11.0384 7.19369 11.8875 8.13378L14.3742 5.95036C13.5635 5.10654 12.5722 4.42522 11.4546 3.98026Z" fill="#2D343F"/>
<path d="M8.25838 3.64471L3.59056 0.911178L12.9262 0.911179L8.25838 3.64471Z" fill="#2D343F"/>
</svg>
