<svg width="40" height="34" viewBox="0 0 40 34" fill="none" xmlns="http://www.w3.org/2000/svg">
<path fill-rule="evenodd" clip-rule="evenodd" d="M29.5143 17.8965C30.2057 17.4977 30.2057 16.4997 29.5143 16.1009L29.1652 15.8996L16.467 15.8996L16.467 25.4217L29.5143 17.8965ZM6.78524 31.0057L2.05418 33.7344C1.36326 34.1329 0.5 33.6343 0.5 32.8367L0.500001 15.8996L6.78524 15.8996L6.78524 31.0057ZM9.32074 29.5433L9.32074 14.6319V13.3641H8.05299L0.500001 13.3641L0.500001 8.82206L8.05299 8.82206H15.1992H16.8941L24.7692 13.3641L15.1992 13.3641H13.9315V14.6319L13.9315 26.8841L9.32074 29.5433ZM12.498 6.28656L2.05418 0.262969C1.36326 -0.135529 0.500001 0.363122 0.500001 1.16073L0.500001 6.28656L8.05299 6.28656L12.498 6.28656Z" fill="url(#paint0_linear_3563_3313)"/>
<path fill-rule="evenodd" clip-rule="evenodd" d="M13.2295 31.0031C15.9199 32.8164 19.1611 33.8749 22.6496 33.8749C31.9699 33.8749 39.5255 26.3193 39.5255 16.999C39.5255 7.6787 31.9699 0.123108 22.6496 0.123108C19.1615 0.123108 15.9205 1.18138 13.2303 2.99436L16.3748 4.80988C18.2549 3.84007 20.3883 3.29249 22.6496 3.29249C30.2195 3.29249 36.3561 9.4291 36.3561 16.999C36.3561 24.5689 30.2195 30.7055 22.6496 30.7055C20.388 30.7055 18.2543 30.1578 16.374 29.1877L13.2295 31.0031Z" fill="#ECECEC"/>
<defs>
<linearGradient id="paint0_linear_3563_3313" x1="-2.89628" y1="29.6556" x2="30.431" y2="34.5603" gradientUnits="userSpaceOnUse">
<stop stop-color="#00C6FF"/>
<stop offset="1" stop-color="#0072FF"/>
</linearGradient>
</defs>
</svg>
