<svg width="42" height="36" viewBox="0 0 42 36" fill="none" xmlns="http://www.w3.org/2000/svg">
<path fill-rule="evenodd" clip-rule="evenodd" d="M30.7267 19.1265C31.4526 18.7078 31.4526 17.6602 30.7267 17.2415L30.5137 17.1187H16.9406V27.0778L30.7267 19.1265ZM6.77651 32.9401L1.89843 35.7536C1.17308 36.172 0.26681 35.6485 0.26681 34.8111L0.26681 17.1187H6.77651L6.77651 32.9401ZM9.43835 31.4049L9.43835 15.7877V14.4568H8.10743L0.266811 14.4568L0.266811 9.68843L8.10743 9.68843H15.6097L17.6311 9.68843L25.8986 14.4568L15.6097 14.4568H14.2788V15.7877L14.2788 28.6131L9.43835 31.4049ZM13.0159 7.02659L1.89843 0.614419C1.17308 0.196066 0.266811 0.719565 0.266811 1.55691L0.266811 7.02659L8.10743 7.02659L13.0159 7.02659Z" fill="url(#paint0_linear_176_712)"/>
<path fill-rule="evenodd" clip-rule="evenodd" d="M13.6315 32.8864C16.4558 34.7899 19.8584 35.901 23.5206 35.901C33.3053 35.901 41.2373 27.969 41.2373 18.1843C41.2373 8.39956 33.3053 0.467499 23.5206 0.467499C19.8584 0.467499 16.4558 1.57862 13.6314 3.48212L16.9326 5.38806C18.9066 4.36977 21.1464 3.79479 23.5206 3.79479C31.4676 3.79479 37.91 10.2372 37.91 18.1843C37.91 26.1313 31.4676 32.5737 23.5206 32.5737C21.1464 32.5737 18.9066 31.9987 16.9327 30.9805L13.6315 32.8864Z" fill="#2D343F"/>
<defs>
<linearGradient id="paint0_linear_176_712" x1="-3.29876" y1="31.4714" x2="31.6891" y2="36.6205" gradientUnits="userSpaceOnUse">
<stop stop-color="#EEA930"/>
<stop offset="1" stop-color="#C73A46"/>
</linearGradient>
</defs>
</svg>
