<svg width="24" height="25" viewBox="0 0 24 25" fill="none" xmlns="http://www.w3.org/2000/svg">
<path d="M11.9999 18.2778C15.1909 18.2778 17.7777 15.691 17.7777 12.5C17.7777 9.30903 15.1909 6.72223 11.9999 6.72223C8.80897 6.72223 6.22217 9.30903 6.22217 12.5C6.22217 15.691 8.80897 18.2778 11.9999 18.2778Z" stroke="#8D8D8D" stroke-width="2" stroke-linecap="round" stroke-linejoin="round"/>
<path d="M18.3469 18.8466L18.2313 18.7311M18.2313 6.26885L18.3469 6.15329L18.2313 6.26885ZM5.65355 18.8466L5.76911 18.7311L5.65355 18.8466ZM12.0002 3.68218V3.61107V3.68218ZM12.0002 21.3888V21.3177V21.3888ZM3.18244 12.5H3.11133H3.18244ZM20.8891 12.5H20.818H20.8891ZM5.76911 6.26885L5.65355 6.15329L5.76911 6.26885Z" stroke="#8D8D8D" stroke-width="2.66667" stroke-linecap="round" stroke-linejoin="round"/>
</svg>
