<svg width="64" height="64" viewBox="0 0 64 64" fill="none" xmlns="http://www.w3.org/2000/svg">
<path d="M58.6654 24V40C58.6654 46.6667 57.332 51.3334 54.3454 54.3467L37.332 37.3334L57.9454 16.72C58.4254 18.8267 58.6654 21.2267 58.6654 24Z" stroke="#01B0FF" stroke-width="4" stroke-linecap="round" stroke-linejoin="round"/>
<path d="M57.9454 16.7201L16.7187 57.9467C8.692 56.1067 5.33203 50.56 5.33203 40V24C5.33203 10.6667 10.6654 5.33337 23.9987 5.33337H39.9987C50.5587 5.33337 56.1054 8.69339 57.9454 16.7201Z" stroke="#01B0FF" stroke-width="4" stroke-linecap="round" stroke-linejoin="round"/>
<path d="M54.3455 54.3467C51.3321 57.3333 46.6654 58.6666 39.9988 58.6666H23.9988C21.2254 58.6666 18.8254 58.4266 16.7188 57.9466L37.3321 37.3333L54.3455 54.3467Z" stroke="#01B0FF" stroke-width="4" stroke-linecap="round" stroke-linejoin="round"/>
<path d="M16.6407 21.28C18.454 13.4666 30.1874 13.4666 32.0007 21.28C33.0407 25.8666 30.1607 29.76 27.6274 32.16C25.7874 33.92 22.8807 33.92 21.0141 32.16C18.4807 29.76 15.574 25.8666 16.6407 21.28Z" stroke="#01B0FF" stroke-width="4"/>
<path d="M24.2523 23.2H24.2762" stroke="#01B0FF" stroke-width="4" stroke-linecap="round" stroke-linejoin="round"/>
</svg>
