<svg width="33" height="33" viewBox="0 0 33 33" fill="none" xmlns="http://www.w3.org/2000/svg">
<path d="M12.6888 30.2692H20.6888C27.3555 30.2692 30.0221 27.6025 30.0221 20.9359V12.9359C30.0221 6.26921 27.3555 3.60254 20.6888 3.60254H12.6888C6.02214 3.60254 3.35547 6.26921 3.35547 12.9359V20.9359C3.35547 27.6025 6.02214 30.2692 12.6888 30.2692Z" stroke="#3A424F" stroke-width="2" stroke-linecap="round" stroke-linejoin="round"/>
<path d="M11.9154 15.4696C13.3293 15.4696 14.4755 14.3235 14.4755 12.9096C14.4755 11.4958 13.3293 10.3496 11.9154 10.3496C10.5016 10.3496 9.35547 11.4958 9.35547 12.9096C9.35547 14.3235 10.5016 15.4696 11.9154 15.4696Z" stroke="#3A424F" stroke-width="2" stroke-linecap="round" stroke-linejoin="round"/>
<path d="M11.9154 23.5228C13.3293 23.5228 14.4755 22.3767 14.4755 20.9628C14.4755 19.549 13.3293 18.4028 11.9154 18.4028C10.5016 18.4028 9.35547 19.549 9.35547 20.9628C9.35547 22.3767 10.5016 23.5228 11.9154 23.5228Z" stroke="#3A424F" stroke-width="2" stroke-linecap="round" stroke-linejoin="round"/>
<path d="M24.023 12.5361L14.2363 19.8561" stroke="#3A424F" stroke-width="2" stroke-linecap="round" stroke-linejoin="round"/>
<path d="M24.023 21.3098L14.2363 13.9897" stroke="#3A424F" stroke-width="2" stroke-linecap="round" stroke-linejoin="round"/>
</svg>
