<svg width="33" height="33" viewBox="0 0 33 33" fill="none" xmlns="http://www.w3.org/2000/svg">
<path d="M12.306 18.2695C11.426 18.7095 10.6927 19.3629 10.146 20.1762C9.83935 20.6429 9.83935 21.2295 10.146 21.6962C10.6927 22.5095 11.426 23.1629 12.306 23.6029" stroke="#3A424F" stroke-width="2" stroke-linecap="round" stroke-linejoin="round"/>
<path d="M20.5859 18.2695C21.4659 18.7095 22.1993 19.3629 22.7459 20.1762C23.0526 20.6429 23.0526 21.2295 22.7459 21.6962C22.1993 22.5095 21.4659 23.1629 20.5859 23.6029" stroke="#3A424F" stroke-width="2" stroke-linecap="round" stroke-linejoin="round"/>
<path d="M12.306 30.2692H20.306C26.9727 30.2692 29.6393 27.6025 29.6393 20.9359V12.9359C29.6393 6.26921 26.9727 3.60254 20.306 3.60254H12.306C5.63932 3.60254 2.97266 6.26921 2.97266 12.9359V20.9359C2.97266 27.6025 5.63932 30.2692 12.306 30.2692Z" stroke="#3A424F" stroke-width="2" stroke-linecap="round" stroke-linejoin="round"/>
<path d="M3.2793 11.6159L28.906 11.6025" stroke="#3A424F" stroke-width="2" stroke-linecap="round" stroke-linejoin="round"/>
</svg>
