<svg width="32" height="32" viewBox="0 0 32 32" fill="none" xmlns="http://www.w3.org/2000/svg">
<g clip-path="url(#clip0_1159_367)">
<path d="M29.0799 5.25317C27.0265 10.3732 21.8799 17.3332 17.5732 20.7865L14.9465 22.8932C14.6132 23.1332 14.2799 23.3465 13.9065 23.4932C13.9065 23.2532 13.8932 22.9865 13.8532 22.7332C13.7065 21.6132 13.1999 20.5732 12.3065 19.6798C11.3999 18.7732 10.2932 18.2398 9.15986 18.0932C8.8932 18.0798 8.62653 18.0532 8.35986 18.0798C8.50653 17.6665 8.7332 17.2798 9.0132 16.9598L11.0932 14.3332C14.5332 10.0265 21.5199 4.85317 26.6265 2.81317C27.4132 2.51984 28.1732 2.73317 28.6532 3.2265C29.1599 3.71984 29.3999 4.47984 29.0799 5.25317Z" stroke="#959595" stroke-width="2" stroke-linecap="round" stroke-linejoin="round"/>
<path d="M13.9064 23.4931C13.9064 24.9597 13.3464 26.3597 12.293 27.4264C11.4797 28.2397 10.373 28.7997 9.05305 28.9731L5.77305 29.3331C3.98638 29.5331 2.45305 28.0131 2.66638 26.1997L3.02638 22.9197C3.34638 19.9997 5.78638 18.1331 8.37305 18.0797C8.63971 18.0664 8.91971 18.0797 9.17305 18.0931C10.3064 18.2397 11.413 18.7597 12.3197 19.6797C13.213 20.5731 13.7197 21.6131 13.8664 22.7331C13.8797 22.9864 13.9064 23.2397 13.9064 23.4931Z" stroke="#959595" stroke-width="2" stroke-linecap="round" stroke-linejoin="round"/>
<path d="M18.9864 19.2935C18.9864 15.8135 16.1597 12.9868 12.6797 12.9868" stroke="#959595" stroke-width="2" stroke-linecap="round" stroke-linejoin="round"/>
<path d="M26.8271 16.9731L27.8138 17.9465C29.8005 19.9331 29.8005 21.8931 27.8138 23.8798L23.8671 27.8265C21.9071 29.7865 19.9204 29.7865 17.9604 27.8265" stroke="#959595" stroke-width="2" stroke-linecap="round"/>
<path d="M4.14627 14.0136C2.18627 12.0269 2.18627 10.0669 4.14627 8.08024L8.09294 4.13357C10.0529 2.17357 12.0396 2.17357 13.9996 4.13357L14.9863 5.12024" stroke="#959595" stroke-width="2" stroke-linecap="round"/>
<path d="M14.9997 5.1333L10.0664 10.0666" stroke="#959595" stroke-width="2" stroke-linecap="round"/>
<path d="M26.827 16.9731L22.8804 20.9065" stroke="#959595" stroke-width="2" stroke-linecap="round"/>
</g>
<defs>
<clipPath id="clip0_1159_367">
<rect width="32" height="32" fill="white"/>
</clipPath>
</defs>
</svg>
