<svg width="32" height="32" viewBox="0 0 32 32" fill="none" xmlns="http://www.w3.org/2000/svg">
<path d="M15.9998 20.6665C18.9465 20.6665 21.3332 18.2798 21.3332 15.3332V7.99984C21.3332 5.05317 18.9465 2.6665 15.9998 2.6665C13.0532 2.6665 10.6665 5.05317 10.6665 7.99984V15.3332C10.6665 18.2798 13.0532 20.6665 15.9998 20.6665Z" stroke="#01B0FF" stroke-width="2" stroke-linecap="round" stroke-linejoin="round"/>
<path d="M5.80029 12.8667V15.1334C5.80029 20.76 10.3736 25.3334 16.0003 25.3334C21.627 25.3334 26.2003 20.76 26.2003 15.1334V12.8667" stroke="#01B0FF" stroke-width="2" stroke-linecap="round" stroke-linejoin="round"/>
<path d="M14.1465 8.57365C15.3465 8.13365 16.6532 8.13365 17.8532 8.57365" stroke="#01B0FF" stroke-width="2" stroke-linecap="round" stroke-linejoin="round"/>
<path d="M14.9336 11.3998C15.6403 11.2131 16.3736 11.2131 17.0803 11.3998" stroke="#01B0FF" stroke-width="2" stroke-linecap="round" stroke-linejoin="round"/>
<path d="M16 25.3335V29.3335" stroke="#01B0FF" stroke-width="2" stroke-linecap="round" stroke-linejoin="round"/>
</svg>
