<svg width="32" height="32" viewBox="0 0 32 32" fill="none" xmlns="http://www.w3.org/2000/svg">
<path d="M21.3332 11.9998C21.3332 17.1598 17.1598 21.3332 11.9998 21.3332C11.5732 21.3332 11.1598 21.3065 10.7598 21.2398C6.1865 20.6398 2.6665 16.7332 2.6665 11.9998C2.6665 6.83984 6.83984 2.6665 11.9998 2.6665C16.7332 2.6665 20.6398 6.1865 21.2398 10.7598C21.3065 11.1598 21.3332 11.5732 21.3332 11.9998Z" stroke="#01B0FF" stroke-width="2" stroke-linecap="round" stroke-linejoin="round"/>
<path d="M29.3331 19.9998C29.3331 25.1598 25.1598 29.3331 19.9998 29.3331C15.2664 29.3331 11.3598 25.8131 10.7598 21.2398C11.1598 21.3064 11.5731 21.3331 11.9998 21.3331C17.1598 21.3331 21.3331 17.1598 21.3331 11.9998C21.3331 11.5731 21.3064 11.1598 21.2398 10.7598C25.8131 11.3598 29.3331 15.2664 29.3331 19.9998Z" stroke="#01B0FF" stroke-width="2" stroke-linecap="round" stroke-linejoin="round"/>
<path d="M18.8667 18.8267L22 21.96" stroke="#01B0FF" stroke-width="2" stroke-linecap="round" stroke-linejoin="round"/>
<path d="M24 17.3335L21.333 14.6665" stroke="#01B0FF" stroke-width="2" stroke-linecap="round" stroke-linejoin="round"/>
<path d="M16.8335 23.5L14.6665 21.333" stroke="#01B0FF" stroke-width="2" stroke-linecap="round" stroke-linejoin="round"/>
</svg>
