<svg width="32" height="32" viewBox="0 0 32 32" fill="none" xmlns="http://www.w3.org/2000/svg">
<path d="M16.7065 27.2268H8.27984C4.0665 27.2268 2.6665 24.4268 2.6665 21.6134V10.3868C2.6665 6.17344 4.0665 4.77344 8.27984 4.77344H16.7065C20.9198 4.77344 22.3198 6.17344 22.3198 10.3868V21.6134C22.3198 25.8268 20.9065 27.2268 16.7065 27.2268Z" stroke="#01B0FF" stroke-width="2" stroke-linecap="round" stroke-linejoin="round"/>
<path d="M26.0265 22.8002L22.3198 20.2002V11.7868L26.0265 9.18684C27.8398 7.92018 29.3332 8.69351 29.3332 10.9202V21.0802C29.3332 23.3068 27.8398 24.0802 26.0265 22.8002Z" stroke="#01B0FF" stroke-width="2" stroke-linecap="round" stroke-linejoin="round"/>
<path d="M15.3335 14.6665C16.4381 14.6665 17.3335 13.7711 17.3335 12.6665C17.3335 11.5619 16.4381 10.6665 15.3335 10.6665C14.2289 10.6665 13.3335 11.5619 13.3335 12.6665C13.3335 13.7711 14.2289 14.6665 15.3335 14.6665Z" stroke="#01B0FF" stroke-width="2" stroke-linecap="round" stroke-linejoin="round"/>
</svg>
