<svg width="32" height="32" viewBox="0 0 32 32" fill="none" xmlns="http://www.w3.org/2000/svg">
<path d="M11.9998 29.3332H19.9998C26.6665 29.3332 29.3332 26.6665 29.3332 19.9998V11.9998C29.3332 5.33317 26.6665 2.6665 19.9998 2.6665H11.9998C5.33317 2.6665 2.6665 5.33317 2.6665 11.9998V19.9998C2.6665 26.6665 5.33317 29.3332 11.9998 29.3332Z" stroke="#01B0FF" stroke-width="2" stroke-linecap="round" stroke-linejoin="round"/>
<path d="M11.2265 14.5336C12.6403 14.5336 13.7865 13.3874 13.7865 11.9736C13.7865 10.5597 12.6403 9.41357 11.2265 9.41357C9.81263 9.41357 8.6665 10.5597 8.6665 11.9736C8.6665 13.3874 9.81263 14.5336 11.2265 14.5336Z" stroke="#01B0FF" stroke-width="2" stroke-linecap="round" stroke-linejoin="round"/>
<path d="M11.2265 22.5868C12.6403 22.5868 13.7865 21.4406 13.7865 20.0268C13.7865 18.6129 12.6403 17.4668 11.2265 17.4668C9.81263 17.4668 8.6665 18.6129 8.6665 20.0268C8.6665 21.4406 9.81263 22.5868 11.2265 22.5868Z" stroke="#01B0FF" stroke-width="2" stroke-linecap="round" stroke-linejoin="round"/>
<path d="M23.3331 11.6001L13.5464 18.9201" stroke="#01B0FF" stroke-width="2" stroke-linecap="round" stroke-linejoin="round"/>
<path d="M23.3331 20.3737L13.5464 13.0537" stroke="#01B0FF" stroke-width="2" stroke-linecap="round" stroke-linejoin="round"/>
</svg>
