<svg width="48" height="47" viewBox="0 0 48 47" fill="none" xmlns="http://www.w3.org/2000/svg">
<path d="M35.3783 13.9928C35.262 13.9734 35.1262 13.9734 35.0099 13.9928C32.3338 13.8958 30.2007 11.7045 30.2007 8.98968C30.2007 6.21664 32.4307 3.98657 35.2038 3.98657C37.9768 3.98657 40.2069 6.23604 40.2069 8.98968C40.1875 11.7045 38.0544 13.8958 35.3783 13.9928Z" stroke="#01B0FF" stroke-width="2.90878" stroke-linecap="round" stroke-linejoin="round"/>
<path d="M33.3804 28.1099C36.0371 28.556 38.9653 28.0905 41.0209 26.7137C43.7551 24.8909 43.7551 21.9045 41.0209 20.0817C38.9459 18.7049 35.979 18.2395 33.3223 18.7049" stroke="#01B0FF" stroke-width="2.90878" stroke-linecap="round" stroke-linejoin="round"/>
<path d="M12.0498 13.9928C12.1661 13.9734 12.3019 13.9734 12.4182 13.9928C15.0943 13.8958 17.2274 11.7045 17.2274 8.98968C17.2274 6.21664 14.9973 3.98657 12.2243 3.98657C9.45126 3.98657 7.22119 6.23604 7.22119 8.98968C7.24058 11.7045 9.37369 13.8958 12.0498 13.9928Z" stroke="#01B0FF" stroke-width="2.90878" stroke-linecap="round" stroke-linejoin="round"/>
<path d="M14.0471 28.1099C11.3904 28.556 8.46219 28.0905 6.40665 26.7137C3.67239 24.8909 3.67239 21.9045 6.40665 20.0817C8.48158 18.7049 11.4485 18.2395 14.1052 18.7049" stroke="#01B0FF" stroke-width="2.90878" stroke-linecap="round" stroke-linejoin="round"/>
<path d="M23.7431 28.4784C23.6267 28.459 23.491 28.459 23.3746 28.4784C20.6985 28.3814 18.5654 26.1901 18.5654 23.4753C18.5654 20.7022 20.7955 18.4722 23.5685 18.4722C26.3416 18.4722 28.5716 20.7216 28.5716 23.4753C28.5523 26.1901 26.4191 28.4008 23.7431 28.4784Z" stroke="#01B0FF" stroke-width="2.90878" stroke-linecap="round" stroke-linejoin="round"/>
<path d="M18.1005 34.5866C15.3662 36.4094 15.3662 39.3958 18.1005 41.2186C21.2032 43.2935 26.2839 43.2935 29.3866 41.2186C32.1208 39.3958 32.1208 36.4094 29.3866 34.5866C26.3033 32.531 21.2032 32.531 18.1005 34.5866Z" stroke="#01B0FF" stroke-width="2.90878" stroke-linecap="round" stroke-linejoin="round"/>
</svg>
