<svg width="64" height="64" viewBox="0 0 64 64" fill="none" xmlns="http://www.w3.org/2000/svg">
<path d="M31.9987 54.6666H18.6654C10.6654 54.6666 5.33203 50.6666 5.33203 41.3333V22.6666C5.33203 13.3333 10.6654 9.33331 18.6654 9.33331H45.332C53.332 9.33331 58.6654 13.3333 58.6654 22.6666V30.6666" stroke="#01B0FF" stroke-width="4" stroke-miterlimit="10" stroke-linecap="round" stroke-linejoin="round"/>
<path d="M45.3346 24L36.988 30.6667C34.2413 32.8533 29.7346 32.8533 26.988 30.6667L18.668 24" stroke="#01B0FF" stroke-width="4" stroke-miterlimit="10" stroke-linecap="round" stroke-linejoin="round"/>
<path d="M51.228 39.3867L41.7881 48.8267C41.4148 49.2 41.0681 49.8933 40.9881 50.4L40.4814 54C40.2947 55.3067 41.2014 56.2134 42.5081 56.0267L46.1081 55.5201C46.6148 55.4401 47.3347 55.0933 47.6814 54.72L57.1214 45.2801C58.7481 43.6534 59.5214 41.7601 57.1214 39.3601C54.7481 36.9867 52.8547 37.76 51.228 39.3867Z" stroke="#01B0FF" stroke-width="4" stroke-miterlimit="10" stroke-linecap="round" stroke-linejoin="round"/>
<path d="M49.8672 40.7466C50.6672 43.6266 52.9072 45.8666 55.7872 46.6666" stroke="#01B0FF" stroke-width="4" stroke-miterlimit="10" stroke-linecap="round" stroke-linejoin="round"/>
</svg>
