<svg width="64" height="64" viewBox="0 0 64 64" fill="none" xmlns="http://www.w3.org/2000/svg">
<path d="M58.5854 48.88C58.5854 49.84 58.372 50.8267 57.9187 51.7867C57.4654 52.7467 56.8787 53.6534 56.1054 54.5067C54.7987 55.9467 53.3587 56.9867 51.732 57.6534C50.132 58.32 48.3987 58.6667 46.532 58.6667C43.812 58.6667 40.9054 58.0267 37.8387 56.72C34.772 55.4134 31.7054 53.6534 28.6654 51.44C25.5987 49.2 22.692 46.72 19.9187 43.9734C17.172 41.2 14.692 38.2934 12.4787 35.2534C10.292 32.2134 8.53203 29.1734 7.25203 26.16C5.97203 23.12 5.33203 20.2134 5.33203 17.44C5.33203 15.6267 5.65203 13.8934 6.29203 12.2934C6.93203 10.6667 7.94536 9.17337 9.3587 7.84004C11.0654 6.16004 12.932 5.33337 14.9054 5.33337C15.652 5.33337 16.3987 5.49337 17.0654 5.81337C17.7587 6.13337 18.372 6.61337 18.852 7.30671L25.0387 16.0267C25.5187 16.6934 25.8654 17.3067 26.1054 17.8934C26.3454 18.4534 26.4787 19.0134 26.4787 19.52C26.4787 20.16 26.292 20.8 25.9187 21.4134C25.572 22.0267 25.0654 22.6667 24.4254 23.3067L22.3987 25.4134C22.1054 25.7067 21.972 26.0534 21.972 26.48C21.972 26.6934 21.9987 26.88 22.052 27.0934C22.132 27.3067 22.212 27.4667 22.2654 27.6267C22.7454 28.5067 23.572 29.6534 24.7454 31.04C25.9454 32.4267 27.2254 33.84 28.612 35.2534C30.052 36.6667 31.4387 37.9734 32.852 39.1734C34.2387 40.3467 35.3854 41.1467 36.292 41.6267C36.4254 41.68 36.5854 41.76 36.772 41.84C36.9854 41.92 37.1987 41.9467 37.4387 41.9467C37.892 41.9467 38.2387 41.7867 38.532 41.4934L40.5587 39.4934C41.2254 38.8267 41.8654 38.32 42.4787 38C43.092 37.6267 43.7054 37.44 44.372 37.44C44.8787 37.44 45.412 37.5467 45.9987 37.7867C46.5854 38.0267 47.1987 38.3734 47.8654 38.8267L56.692 45.0934C57.3854 45.5734 57.8654 46.1334 58.1587 46.8C58.4254 47.4667 58.5854 48.1334 58.5854 48.88Z" stroke="#01B0FF" stroke-width="4" stroke-miterlimit="10"/>
<path d="M49.3333 24C49.3333 22.4 48.08 19.9467 46.2133 17.9467C44.5067 16.1067 42.24 14.6667 40 14.6667" stroke="#01B0FF" stroke-width="4" stroke-linecap="round" stroke-linejoin="round"/>
<path d="M58.6667 24C58.6667 13.68 50.32 5.33337 40 5.33337" stroke="#01B0FF" stroke-width="4" stroke-linecap="round" stroke-linejoin="round"/>
</svg>
