<svg width="33" height="33" viewBox="0 0 33 33" fill="none" xmlns="http://www.w3.org/2000/svg">
<path d="M9.44975 30.2692H23.4231C27.1031 30.2692 28.5698 28.0159 28.7431 25.2692L29.4364 14.2559C29.6231 11.3759 27.3298 8.93587 24.4364 8.93587C23.6231 8.93587 22.8764 8.46921 22.5031 7.74921L21.5431 5.81587C20.9298 4.60254 19.3298 3.60254 17.9698 3.60254H14.9164C13.5431 3.60254 11.9431 4.60254 11.3298 5.81587L10.3698 7.74921C9.99642 8.46921 9.24975 8.93587 8.43642 8.93587C5.54309 8.93587 3.24975 11.3759 3.43642 14.2559L4.12975 25.2692C4.28975 28.0159 5.76975 30.2692 9.44975 30.2692Z" stroke="#3A424F" stroke-width="2" stroke-linecap="round" stroke-linejoin="round"/>
<path d="M14.4355 11.6025H18.4355" stroke="#3A424F" stroke-width="2" stroke-linecap="round" stroke-linejoin="round"/>
<path d="M16.4349 24.9362C18.8216 24.9362 20.7682 22.9895 20.7682 20.6029C20.7682 18.2162 18.8216 16.2695 16.4349 16.2695C14.0482 16.2695 12.1016 18.2162 12.1016 20.6029C12.1016 22.9895 14.0482 24.9362 16.4349 24.9362Z" stroke="#3A424F" stroke-width="2" stroke-linecap="round" stroke-linejoin="round"/>
</svg>
