<svg width="82" height="82" viewBox="0 0 82 82" fill="none" xmlns="http://www.w3.org/2000/svg">
<path d="M41.0002 59.7917C45.271 59.7917 48.9018 58.2974 51.8925 55.309C54.8809 52.3183 56.3752 48.6875 56.3752 44.4167C56.3752 40.1458 54.8809 36.5151 51.8925 33.5243C48.9018 30.5359 45.271 29.0417 41.0002 29.0417C36.7293 29.0417 33.0986 30.5359 30.1078 33.5243C27.1194 36.5151 25.6252 40.1458 25.6252 44.4167C25.6252 48.6875 27.1194 52.3183 30.1078 55.309C33.0986 58.2974 36.7293 59.7917 41.0002 59.7917ZM41.0002 52.9583C38.6085 52.9583 36.587 52.1326 34.9356 50.4813C33.2842 48.8299 32.4585 46.8083 32.4585 44.4167C32.4585 42.025 33.2842 40.0035 34.9356 38.3521C36.587 36.7007 38.6085 35.875 41.0002 35.875C43.3918 35.875 45.4134 36.7007 47.0647 38.3521C48.7161 40.0035 49.5418 42.025 49.5418 44.4167C49.5418 46.8083 48.7161 48.8299 47.0647 50.4813C45.4134 52.1326 43.3918 52.9583 41.0002 52.9583ZM13.6668 71.75C11.7877 71.75 10.1796 71.0815 8.8425 69.7444C7.50316 68.4051 6.8335 66.7958 6.8335 64.9167V23.9167C6.8335 22.0375 7.50316 20.4294 8.8425 19.0923C10.1796 17.753 11.7877 17.0833 13.6668 17.0833H24.4293L30.7502 10.25H51.2502L57.571 17.0833H68.3335C70.2127 17.0833 71.8219 17.753 73.1612 19.0923C74.4983 20.4294 75.1668 22.0375 75.1668 23.9167V64.9167C75.1668 66.7958 74.4983 68.4051 73.1612 69.7444C71.8219 71.0815 70.2127 71.75 68.3335 71.75H13.6668ZM68.3335 64.9167V23.9167H54.496L48.2606 17.0833H33.7397L27.5043 23.9167H13.6668V64.9167H68.3335Z" fill="url(#paint0_linear_486_360)"/>
<defs>
<linearGradient id="paint0_linear_486_360" x1="-1.02484" y1="64.0625" x2="75.0997" y2="78.2886" gradientUnits="userSpaceOnUse">
<stop stop-color="#00C6FF"/>
<stop offset="1" stop-color="#0072FF"/>
</linearGradient>
</defs>
</svg>
