<svg width="16" height="13" viewBox="0 0 16 13" fill="none" xmlns="http://www.w3.org/2000/svg">
<path d="M2.27591 6.82767C1.01896 5.57072 1.01896 3.5328 2.27591 2.27585V2.27585C3.53286 1.0189 5.57078 1.0189 6.82773 2.27585L12.5175 7.96562L7.96569 12.5174L2.27591 6.82767Z" fill="white"/>
<path d="M9.3621 2.27023C10.5841 1.04824 12.5653 1.04824 13.7873 2.27022V2.27022C15.0093 3.49221 15.0093 5.47345 13.7873 6.69544L8.03424 12.4485L3.60902 8.0233L9.3621 2.27023Z" fill="white"/>
<g clip-path="url(#clip0_1507_1364)">
<path d="M2.27523 6.82949C1.01828 5.57254 1.01828 3.53463 2.27523 2.27768C3.53218 1.02072 5.5701 1.02072 6.82705 2.27768L12.5168 7.96745L7.965 12.5193L2.27523 6.82949Z" fill="#FF0000"/>
<path d="M9.36147 2.27098C10.5835 1.049 12.5647 1.049 13.7867 2.27099C15.0087 3.49297 15.0087 5.47421 13.7867 6.6962L8.03361 12.4493L3.6084 8.02406L9.36147 2.27098Z" fill="#FF0000"/>
</g>
<defs>
<clipPath id="clip0_1507_1364">
<rect width="14.4838" height="4.02328" fill="white" transform="translate(0.804688 4.82812)"/>
</clipPath>
</defs>
</svg>
