<svg width="26" height="26" viewBox="0 0 26 26" fill="none" xmlns="http://www.w3.org/2000/svg">
<g clip-path="url(#clip0_1486_1307)">
<path d="M17.2362 12.9498C17.2362 11.7625 16.8236 10.7462 15.9986 9.90098C15.1735 9.0558 14.1572 8.63319 12.9498 8.63319C11.7423 8.63319 10.7261 9.0558 9.90098 9.90098C9.07591 10.7462 8.65331 11.7625 8.63319 12.9498C8.61304 14.1371 9.03565 15.1533 9.90098 15.9986C10.7663 16.8438 11.7826 17.2663 12.9498 17.2663C14.117 17.2663 15.1332 16.8438 15.9986 15.9986C16.8639 15.1533 17.2764 14.1371 17.2362 12.9498ZM19.5605 12.9498C19.5605 14.781 18.9165 16.3507 17.6286 17.6588C16.3406 18.9668 14.781 19.6108 12.9498 19.5907C11.1185 19.5706 9.54882 18.9266 8.24077 17.6588C6.93272 16.391 6.28875 14.8213 6.30886 12.9498C6.32898 11.0782 6.97295 9.50856 8.24077 8.24077C9.50856 6.97294 11.0782 6.32897 12.9498 6.30886C14.8213 6.28875 16.3809 6.93272 17.6286 8.24077C18.8763 9.54882 19.5203 11.1185 19.5605 12.9498ZM21.4018 6.0372C21.4018 6.4598 21.2509 6.82204 20.949 7.12389C20.6472 7.42574 20.2749 7.57669 19.8321 7.57669C19.3894 7.57669 19.0272 7.42574 18.7455 7.12389C18.4637 6.82204 18.3128 6.4598 18.2927 6.0372C18.2725 5.61459 18.4235 5.25236 18.7455 4.9505C19.0675 4.64865 19.4297 4.49771 19.8321 4.49771C20.2346 4.49771 20.6069 4.64865 20.949 4.9505C21.2911 5.25236 21.4421 5.61459 21.4018 6.0372ZM12.9498 2.32432C12.8693 2.32432 12.4366 2.32432 11.6518 2.32432C10.867 2.32432 10.2733 2.32432 9.87079 2.32432C9.46833 2.32432 8.92497 2.34444 8.24077 2.38469C7.55654 2.42494 6.98302 2.47525 6.52015 2.53562C6.05731 2.59599 5.65482 2.70667 5.31274 2.86767C4.74926 3.08903 4.2562 3.41101 3.83363 3.83362C3.41101 4.25623 3.07897 4.74926 2.83748 5.31274C2.71673 5.6347 2.61612 6.0372 2.53562 6.52015C2.45512 7.00313 2.39475 7.58672 2.3545 8.27096C2.31426 8.95515 2.30419 9.48844 2.32432 9.87079C2.34444 10.2532 2.34444 10.8468 2.32432 11.6518C2.30419 12.4567 2.30419 12.8894 2.32432 12.9498C2.34444 13.0101 2.34444 13.4428 2.32432 14.2478C2.30419 15.0527 2.30419 15.6464 2.32432 16.0287C2.34444 16.4111 2.3545 16.9444 2.3545 17.6286C2.3545 18.3128 2.41488 18.8964 2.53562 19.3794C2.65636 19.8623 2.75698 20.2648 2.83748 20.5868C3.07897 21.1503 3.41101 21.6433 3.83363 22.0659C4.2562 22.4885 4.74926 22.8105 5.31274 23.0319C5.63471 23.1526 6.0372 23.2633 6.52015 23.3639C7.00314 23.4645 7.57669 23.5148 8.24077 23.5148C8.90486 23.5148 9.44818 23.535 9.87079 23.5752C10.2934 23.6155 10.8871 23.6155 11.6518 23.5752C12.4165 23.535 12.8492 23.535 12.9498 23.5752C13.0504 23.6155 13.473 23.6155 14.2176 23.5752C14.9622 23.535 15.5558 23.535 15.9986 23.5752C16.4413 23.6155 16.9846 23.5954 17.6286 23.5148C18.2725 23.4343 18.8561 23.384 19.3794 23.3639C19.9026 23.3438 20.295 23.2331 20.5566 23.0319C21.1201 22.8105 21.6232 22.4885 22.0659 22.0659C22.5086 21.6433 22.8306 21.1503 23.0319 20.5868C23.1526 20.2648 23.2532 19.8623 23.3337 19.3794C23.4142 18.8964 23.4746 18.3128 23.5148 17.6286C23.5551 16.9444 23.5652 16.4111 23.545 16.0287C23.5249 15.6464 23.5249 15.0527 23.545 14.2478C23.5652 13.4428 23.5652 13.0101 23.545 12.9498C23.5249 12.8894 23.5249 12.4567 23.545 11.6518C23.5652 10.8468 23.5652 10.2532 23.545 9.87079C23.5249 9.48844 23.5148 8.95515 23.5148 8.27096C23.5148 7.58672 23.4545 7.00313 23.3337 6.52015C23.213 6.0372 23.1124 5.6347 23.0319 5.31274C22.8105 4.74926 22.4885 4.25623 22.0659 3.83362C21.6433 3.41101 21.1402 3.08903 20.5566 2.86767C20.2346 2.74692 19.8422 2.63624 19.3794 2.53562C18.9165 2.435 18.3329 2.38469 17.6286 2.38469C16.9243 2.38469 16.3809 2.36457 15.9986 2.32432C15.6162 2.28407 15.0225 2.28407 14.2176 2.32432C13.4126 2.36457 12.99 2.36457 12.9498 2.32432ZM25.8693 12.9498C25.8693 15.5256 25.8392 17.3066 25.7788 18.2927C25.6782 20.6271 24.9839 22.4382 23.696 23.7262C22.408 25.0141 20.6069 25.7084 18.2927 25.809C17.2865 25.8693 15.5055 25.8995 12.9498 25.8995C10.394 25.8995 8.61304 25.8693 7.60684 25.809C5.27247 25.6882 3.46132 24.9939 2.17339 23.7262C0.885455 22.4583 0.191178 20.6472 0.090558 18.2927C0.0301859 17.3066 0 15.5256 0 12.9498C0 10.3739 0.0301859 8.59292 0.090558 7.60687C0.191178 5.27247 0.885455 3.46132 2.17339 2.17339C3.46132 0.885456 5.27247 0.191179 7.60684 0.0905588C8.59293 0.0301872 10.3739 0 12.9498 0C15.5256 0 17.3066 0.0301872 18.2927 0.0905588C20.6271 0.211302 22.4281 0.905581 23.696 2.17339C24.9638 3.4412 25.6581 5.25236 25.7788 7.60687C25.8392 8.59292 25.8693 10.3739 25.8693 12.9498Z" fill="#C1C1C1"/>
</g>
<defs>
<clipPath id="clip0_1486_1307">
<rect width="26" height="26" fill="white"/>
</clipPath>
</defs>
</svg>
