<svg width="33" height="33" viewBox="0 0 33 33" fill="none" xmlns="http://www.w3.org/2000/svg">
<g clip-path="url(#clip0_3018_1434)">
<path d="M29.2571 6.18921C27.2038 11.3092 22.0571 18.2692 17.7504 21.7225L15.1238 23.8292C14.7904 24.0692 14.4571 24.2825 14.0838 24.4292C14.0838 24.1892 14.0704 23.9225 14.0304 23.6692C13.8838 22.5492 13.3771 21.5092 12.4838 20.6159C11.5771 19.7092 10.4704 19.1759 9.33711 19.0292C9.07044 19.0159 8.80378 18.9892 8.53711 19.0159C8.68378 18.6025 8.91044 18.2159 9.19044 17.8959L11.2704 15.2692C14.7104 10.9625 21.6971 5.7892 26.8038 3.7492C27.5904 3.45587 28.3504 3.66921 28.8304 4.16254C29.3371 4.65587 29.5771 5.41587 29.2571 6.18921Z" stroke="#3A424F" stroke-width="2" stroke-linecap="round" stroke-linejoin="round"/>
<path d="M14.0841 24.4291C14.0841 25.8958 13.5241 27.2958 12.4708 28.3624C11.6574 29.1758 10.5508 29.7358 9.23078 29.9091L5.95078 30.2691C4.16411 30.4691 2.63078 28.9491 2.84411 27.1358L3.20411 23.8558C3.52411 20.9358 5.96412 19.0691 8.55078 19.0158C8.81745 19.0024 9.09745 19.0158 9.35078 19.0291C10.4841 19.1758 11.5908 19.6958 12.4974 20.6158C13.3908 21.5091 13.8974 22.5491 14.0441 23.6691C14.0574 23.9224 14.0841 24.1758 14.0841 24.4291Z" stroke="#3A424F" stroke-width="2" stroke-linecap="round" stroke-linejoin="round"/>
<path d="M19.1641 20.2295C19.1641 16.7495 16.3374 13.9229 12.8574 13.9229" stroke="#3A424F" stroke-width="2" stroke-linecap="round" stroke-linejoin="round"/>
<path d="M27.0053 17.9092L27.992 18.8825C29.9787 20.8692 29.9787 22.8292 27.992 24.8158L24.0453 28.7625C22.0853 30.7225 20.0987 30.7225 18.1387 28.7625" stroke="#3A424F" stroke-width="2" stroke-linecap="round"/>
<path d="M4.32352 14.9496C2.36352 12.9629 2.36352 11.0029 4.32352 9.01628L8.27018 5.06961C10.2302 3.10961 12.2168 3.10961 14.1768 5.06961L15.1635 6.05628" stroke="#3A424F" stroke-width="2" stroke-linecap="round"/>
<path d="M15.1775 6.06934L10.2441 11.0027" stroke="#3A424F" stroke-width="2" stroke-linecap="round"/>
<path d="M27.0053 17.9092L23.0586 21.8425" stroke="#3A424F" stroke-width="2" stroke-linecap="round"/>
</g>
<defs>
<clipPath id="clip0_3018_1434">
<rect width="32" height="32" fill="white" transform="translate(0.177734 0.936035)"/>
</clipPath>
</defs>
</svg>
