<svg width="33" height="33" viewBox="0 0 33 33" fill="none" xmlns="http://www.w3.org/2000/svg">
<path d="M16.5618 21.6025C19.5085 21.6025 21.8952 19.2159 21.8952 16.2692V8.93587C21.8952 5.98921 19.5085 3.60254 16.5618 3.60254C13.6152 3.60254 11.2285 5.98921 11.2285 8.93587V16.2692C11.2285 19.2159 13.6152 21.6025 16.5618 21.6025Z" stroke="#3A424F" stroke-width="2" stroke-linecap="round" stroke-linejoin="round"/>
<path d="M6.36328 13.8027V16.0694C6.36328 21.6961 10.9366 26.2694 16.5633 26.2694C22.1899 26.2694 26.7633 21.6961 26.7633 16.0694V13.8027" stroke="#3A424F" stroke-width="2" stroke-linecap="round" stroke-linejoin="round"/>
<path d="M14.709 9.50969C15.909 9.06969 17.2157 9.06969 18.4157 9.50969" stroke="#3A424F" stroke-width="2" stroke-linecap="round" stroke-linejoin="round"/>
<path d="M15.4961 12.3358C16.2028 12.1491 16.9361 12.1491 17.6428 12.3358" stroke="#3A424F" stroke-width="2" stroke-linecap="round" stroke-linejoin="round"/>
<path d="M16.5625 26.2695V30.2695" stroke="#3A424F" stroke-width="2" stroke-linecap="round" stroke-linejoin="round"/>
</svg>
