<svg width="32" height="32" viewBox="0 0 32 32" fill="none" xmlns="http://www.w3.org/2000/svg">
<path d="M11.9999 17.3335C11.1199 17.7735 10.3865 18.4268 9.83986 19.2402C9.5332 19.7068 9.5332 20.2935 9.83986 20.7602C10.3865 21.5735 11.1199 22.2268 11.9999 22.6668" stroke="#959595" stroke-width="2" stroke-linecap="round" stroke-linejoin="round"/>
<path d="M20.2798 17.3335C21.1598 17.7735 21.8931 18.4268 22.4398 19.2402C22.7465 19.7068 22.7465 20.2935 22.4398 20.7602C21.8931 21.5735 21.1598 22.2268 20.2798 22.6668" stroke="#959595" stroke-width="2" stroke-linecap="round" stroke-linejoin="round"/>
<path d="M11.9998 29.3332H19.9998C26.6665 29.3332 29.3332 26.6665 29.3332 19.9998V11.9998C29.3332 5.33317 26.6665 2.6665 19.9998 2.6665H11.9998C5.33317 2.6665 2.6665 5.33317 2.6665 11.9998V19.9998C2.6665 26.6665 5.33317 29.3332 11.9998 29.3332Z" stroke="#959595" stroke-width="2" stroke-linecap="round" stroke-linejoin="round"/>
<path d="M2.97314 10.6798L28.5998 10.6665" stroke="#959595" stroke-width="2" stroke-linecap="round" stroke-linejoin="round"/>
</svg>
