<svg width="32" height="32" viewBox="0 0 32 32" fill="none" xmlns="http://www.w3.org/2000/svg">
<path d="M23.0533 5.51983L22.96 10.5731C22.9467 11.2665 23.3867 12.1865 23.9467 12.5998L27.2534 15.1065C29.3734 16.7065 29.0267 18.6665 26.4934 19.4665L22.1867 20.8131C21.4667 21.0398 20.7067 21.8265 20.52 22.5598L19.4934 26.4798C18.68 29.5731 16.6533 29.8798 14.9733 27.1598L12.6267 23.3598C12.2 22.6665 11.1867 22.1465 10.3867 22.1865L5.93338 22.4131C2.74671 22.5731 1.84003 20.7332 3.92003 18.3065L6.56 15.2398C7.05334 14.6665 7.28 13.5998 7.05333 12.8798L5.70673 8.57313C4.92007 6.0398 6.33338 4.63982 8.85338 5.46648L12.7867 6.75982C13.4534 6.97315 14.4534 6.82647 15.0134 6.41314L19.1201 3.45314C21.3334 1.85314 23.1067 2.7865 23.0533 5.51983Z" stroke="#01B0FF" stroke-width="2" stroke-linecap="round" stroke-linejoin="round"/>
<path d="M29.2133 29.333L25.1733 25.293" stroke="#01B0FF" stroke-width="2" stroke-linecap="round" stroke-linejoin="round"/>
</svg>
