<svg width="32" height="32" viewBox="0 0 32 32" fill="none" xmlns="http://www.w3.org/2000/svg">
<path d="M24 25.1468H22.9867C21.92 25.1468 20.9067 25.5601 20.16 26.3068L17.88 28.5601C16.84 29.5868 15.1467 29.5868 14.1067 28.5601L11.8267 26.3068C11.08 25.5601 10.0533 25.1468 9 25.1468H8C5.78667 25.1468 4 23.3735 4 21.1868V6.64014C4 4.45347 5.78667 2.68018 8 2.68018H24C26.2133 2.68018 28 4.45347 28 6.64014V21.1868C28 23.3602 26.2133 25.1468 24 25.1468Z" stroke="#01B0FF" stroke-width="2" stroke-miterlimit="10" stroke-linecap="round" stroke-linejoin="round"/>
<path d="M15.9998 13.3334C17.7155 13.3334 19.1064 11.9425 19.1064 10.2267C19.1064 8.51096 17.7155 7.12012 15.9998 7.12012C14.284 7.12012 12.8931 8.51096 12.8931 10.2267C12.8931 11.9425 14.284 13.3334 15.9998 13.3334Z" stroke="#01B0FF" stroke-width="2" stroke-linecap="round" stroke-linejoin="round"/>
<path d="M21.3332 20.8798C21.3332 18.4798 18.9465 16.5332 15.9998 16.5332C13.0532 16.5332 10.6665 18.4798 10.6665 20.8798" stroke="#01B0FF" stroke-width="2" stroke-linecap="round" stroke-linejoin="round"/>
</svg>
