<svg width="229" height="217" viewBox="0 0 229 217" fill="none" xmlns="http://www.w3.org/2000/svg">
<path d="M226.001 0.883301H3.59425C1.98539 0.883301 0.681152 2.18754 0.681152 3.7964V148.499C0.681152 150.108 1.98539 151.412 3.59425 151.412H35.0375C36.6464 151.412 37.9506 152.716 37.9506 154.325V206.963C37.9506 209.831 41.6587 210.973 43.2722 208.602L81.3195 152.686C81.862 151.889 82.7637 151.412 83.7279 151.412H226.001C227.609 151.412 228.914 150.108 228.914 148.499V3.7964C228.914 2.18754 227.609 0.883301 226.001 0.883301Z" fill="#181A1C"/>
<path d="M142.056 80.2481C142.056 65.0604 129.072 52.3122 113.727 52.3122C98.3031 52.3122 85.3189 65.0604 85.3189 80.2481C85.3189 95.4358 98.3031 108.263 113.727 108.263C120.18 108.263 126.16 105.981 130.961 102.282L136.784 107.318L141.978 101.259L136.548 96.5375C140.01 91.9733 142.056 86.3074 142.056 80.2481ZM113.727 99.2917C103.733 99.2917 95.3128 90.6355 95.3128 80.2481C95.3128 69.9394 103.733 61.2832 113.727 61.2832C123.642 61.2832 131.984 69.9394 131.984 80.2481C131.984 83.868 130.961 87.2517 129.229 90.1634L121.99 83.868L116.796 89.9273L123.8 96.0653C120.888 98.1113 117.425 99.2917 113.727 99.2917Z" fill="#8D8D8D"/>
</svg>
