<svg width="396" height="621" viewBox="0 0 396 621" fill="none" xmlns="http://www.w3.org/2000/svg">
<path d="M136.047 417.141H234.658V336.855C328.906 315.911 395.229 246.098 395.229 167.558C395.229 72.4373 318.434 0.00593293 203.242 0.00593293C116.848 0.00593293 49.6528 40.1486 0.783457 95.9993L64.4881 160.577C96.7768 124.797 137.792 97.7446 188.407 97.7446C247.748 97.7446 286.145 135.269 286.145 178.03C286.145 224.281 224.186 260.933 136.047 266.169V417.141ZM185.789 620.472C222.441 620.472 252.984 589.056 252.984 550.659C252.984 514.879 222.441 483.463 185.789 483.463C145.646 483.463 115.975 514.879 115.975 550.659C115.975 589.056 145.646 620.472 185.789 620.472Z" fill="url(#paint0_linear_986_1770)"/>
<defs>
<linearGradient id="paint0_linear_986_1770" x1="47.7893" y1="-53" x2="203.128" y2="789.253" gradientUnits="userSpaceOnUse">
<stop stop-color="white" stop-opacity="0.2"/>
<stop offset="1" stop-color="white" stop-opacity="0.01"/>
</linearGradient>
</defs>
</svg>
