<svg width="229" height="216" viewBox="0 0 229 216" fill="none" xmlns="http://www.w3.org/2000/svg">
<path d="M3.6152 0.097168H226.021C227.63 0.097168 228.935 1.40141 228.935 3.01027V147.713C228.935 149.322 227.63 150.626 226.021 150.626H194.578C192.969 150.626 191.665 151.93 191.665 153.539V206.177C191.665 209.045 187.957 210.187 186.344 207.816L148.296 151.9C147.754 151.103 146.852 150.626 145.888 150.626H3.6152C2.00635 150.626 0.702103 149.322 0.702103 147.713V3.01027C0.702103 1.40141 2.00633 0.097168 3.6152 0.097168Z" fill="#01B0FF"/>
<path d="M130.773 97.6738H141.632L119.048 43.612H108.109L85.5247 97.6738H96.4629L100.555 87.9159H126.681L130.773 97.6738ZM104.096 79.4171L113.618 56.675L123.14 79.4171H104.096Z" fill="#ECECEC"/>
</svg>
