<svg width="40" height="35" viewBox="0 0 40 35" fill="none" xmlns="http://www.w3.org/2000/svg">
<path fill-rule="evenodd" clip-rule="evenodd" d="M29.0138 18.3965C29.7052 17.9977 29.7052 16.9998 29.0138 16.601L28.6647 16.3996L15.9665 16.3996L15.9665 25.9217L29.0138 18.3965ZM6.2848 31.5057L1.55369 34.2344C0.862768 34.6329 -0.000488316 34.1343 -0.000488281 33.3367L-0.00048754 16.3996H6.2848L6.2848 31.5057ZM8.8203 30.0433L8.8203 15.1319V13.8641H7.55255L-0.000487429 13.8641L-0.00048723 9.32208L7.55255 9.32208H14.6988H16.3936L24.2687 13.8641L14.6988 13.8641H13.431V15.1319L13.431 27.384L8.8203 30.0433ZM11.9975 6.78657L1.55369 0.762984C0.862769 0.364486 -0.00048686 0.863137 -0.000486895 1.66074L-0.00048712 6.78657L7.55255 6.78657L11.9975 6.78657Z" fill="url(#paint0_linear_496_195)"/>
<path fill-rule="evenodd" clip-rule="evenodd" d="M12.7295 31.5032C15.4199 33.3165 18.6611 34.3749 22.1496 34.3749C31.4699 34.3749 39.0255 26.8193 39.0255 17.499C39.0255 8.17872 31.4699 0.623123 22.1496 0.623123C18.6615 0.623123 15.4205 1.68139 12.7303 3.49437L15.8748 5.3099C17.7549 4.34009 19.8883 3.7925 22.1496 3.7925C29.7195 3.7925 35.8561 9.92912 35.8561 17.499C35.8561 25.0689 29.7195 31.2055 22.1496 31.2055C19.888 31.2055 17.7543 30.6578 15.874 29.6877L12.7295 31.5032Z" fill="#2D343F"/>
<defs>
<linearGradient id="paint0_linear_496_195" x1="-3.39677" y1="30.1556" x2="29.9306" y2="35.0603" gradientUnits="userSpaceOnUse">
<stop stop-color="#00C6FF"/>
<stop offset="1" stop-color="#0072FF"/>
</linearGradient>
</defs>
</svg>
