<svg width="161" height="36" viewBox="0 0 161 36" fill="none" xmlns="http://www.w3.org/2000/svg">
<path fill-rule="evenodd" clip-rule="evenodd" d="M30.7267 19.1265C31.4526 18.7078 31.4526 17.6602 30.7267 17.2415L30.5137 17.1187H16.9406V27.0778L30.7267 19.1265ZM6.77651 32.9401L1.89843 35.7536C1.17308 36.172 0.26681 35.6485 0.26681 34.8111L0.26681 17.1187H6.77651L6.77651 32.9401ZM9.43835 31.4049L9.43835 15.7877V14.4568H8.10743L0.266811 14.4568L0.266811 9.68843L8.10743 9.68843H15.6097L17.6311 9.68843L25.8986 14.4568L15.6097 14.4568H14.2788V15.7877L14.2788 28.6131L9.43835 31.4049ZM13.0159 7.02659L1.89843 0.614419C1.17308 0.196066 0.266811 0.719565 0.266811 1.55691L0.266811 7.02659L8.10743 7.02659L13.0159 7.02659Z" fill="url(#paint0_linear_176_711)"/>
<path fill-rule="evenodd" clip-rule="evenodd" d="M13.6315 32.8864C16.4558 34.7899 19.8584 35.901 23.5206 35.901C33.3053 35.901 41.2373 27.969 41.2373 18.1843C41.2373 8.39956 33.3053 0.467499 23.5206 0.467499C19.8584 0.467499 16.4558 1.57862 13.6314 3.48212L16.9326 5.38806C18.9066 4.36977 21.1464 3.79479 23.5206 3.79479C31.4676 3.79479 37.91 10.2372 37.91 18.1843C37.91 26.1313 31.4676 32.5737 23.5206 32.5737C21.1464 32.5737 18.9066 31.9987 16.9327 30.9805L13.6315 32.8864Z" fill="#2D343F"/>
<path fill-rule="evenodd" clip-rule="evenodd" d="M103.204 7.84607L107.574 9.72636L112.129 7.76655C113.442 8.3506 114.622 9.18767 115.594 10.2178L112.444 13.0437C111.267 11.6897 109.589 10.7771 107.734 10.7771C104.349 10.7771 101.464 13.7797 101.464 17.2826C101.464 20.815 104.349 23.8175 107.734 23.8175C109.589 23.8175 111.267 22.905 112.444 21.5509L115.594 24.3768C113.622 26.4374 110.796 27.7621 107.734 27.7621C101.935 27.7621 96.9899 22.9639 96.9899 17.2826C96.9899 13.1732 99.5773 9.54124 103.204 7.84607ZM56.0905 27.4088H51.7338V7.18587H56.0905V27.4088ZM69.7228 27.4088H65.3662V11.1009H59.0668V7.18587H76.0223V11.1009H69.7228V27.4088ZM94.4988 7.18587V11.1009H83.2834V15.1337H93.4391V19.0488H83.2834V23.4937H94.4988V27.4088H78.9268V7.18587H94.4988ZM122.755 27.4088H118.428V7.18587H122.755V16.4584L130.939 7.18587H136.208L128.319 15.958L136.767 27.4088H131.498L125.287 19.0488L122.755 21.757V27.4088ZM158.753 17.2826C158.753 22.9639 153.866 27.7621 148.008 27.7621C142.209 27.7621 137.264 22.9639 137.264 17.2826C137.264 11.6014 142.209 6.83263 148.008 6.83263C153.866 6.83263 158.753 11.6014 158.753 17.2826ZM141.738 17.2826C141.738 20.815 144.623 23.8175 148.008 23.8175C151.423 23.8175 154.308 20.815 154.308 17.2826C154.308 13.7797 151.423 10.7771 148.008 10.7771C144.623 10.7771 141.738 13.7797 141.738 17.2826Z" fill="#2D343F"/>
<path d="M107.576 7.84895L101.737 5.15175L113.416 5.15175L107.576 7.84895Z" fill="#2D343F"/>
<defs>
<linearGradient id="paint0_linear_176_711" x1="-3.29876" y1="31.4714" x2="31.6891" y2="36.6205" gradientUnits="userSpaceOnUse">
<stop stop-color="#EEA930"/>
<stop offset="1" stop-color="#C73A46"/>
</linearGradient>
</defs>
</svg>
