<svg width="87" height="23" viewBox="0 0 87 23" fill="none" xmlns="http://www.w3.org/2000/svg">
<path fill-rule="evenodd" clip-rule="evenodd" d="M68.1908 6.75975H63.8239L57.0311 14.1894V1.24054H53.3314V22.4379H57.0311V18.526L59.2448 16.1909L63.6723 22.4379H67.9785L61.7315 13.7649L68.1908 6.75975ZM13.3522 19.648C13.989 19.648 14.5652 19.4054 14.8988 19.0718L15.9602 21.5585C15.0808 22.3166 13.8071 22.8018 12.6244 22.8018C10.0164 22.8018 8.19692 20.9217 8.19692 18.2834V9.8226V6.75975V2.45355H11.8056V6.75975H15.3537V9.8226H11.8056V17.8285C11.8056 18.8899 12.4728 19.648 13.3522 19.648ZM4.34422 22.4379H0.644531V6.75975H4.34422V22.4379ZM26.1403 19.5267C23.8962 19.5267 22.2586 18.0104 21.8037 15.8573H33.6306C33.6306 10.0652 30.8104 6.39584 25.9583 6.39584C21.5005 6.39584 17.9827 9.85293 17.9827 14.5533C17.9827 19.3751 21.6824 22.8018 26.1706 22.8018C28.445 22.8018 31.1743 21.8314 32.5389 20.3758L30.2039 17.9498C29.3244 18.8595 27.5959 19.5267 26.1403 19.5267ZM26.1099 9.67097C28.3237 9.67097 29.658 11.0659 30.0826 13.0371H21.8341C22.3799 10.975 24.0478 9.67097 26.1099 9.67097ZM50.4839 20.1635C48.9676 21.7708 46.8752 22.8018 44.3885 22.8018C39.87 22.8018 36.0187 19.0415 36.0187 14.5837C36.0187 11.2425 38.1823 8.31011 41.1943 7.05074L44.2675 8.85168L47.4733 6.97307C48.5909 7.41803 49.5822 8.09935 50.3929 8.94317L47.9062 11.1266C47.0571 10.1865 45.7531 9.54967 44.4188 9.54967C41.8412 9.54967 39.6881 11.8544 39.6881 14.5837C39.6881 17.3433 41.8412 19.648 44.4188 19.648C45.7835 19.648 47.1178 19.0112 47.9972 18.0104L50.4839 20.1635ZM86.4019 14.5837C86.4019 19.0415 82.5506 22.8018 78.0018 22.8018C73.453 22.8018 69.6016 19.0415 69.6016 14.5837C69.6016 10.1259 73.453 6.39584 78.0018 6.39584C82.5506 6.39584 86.4019 10.1259 86.4019 14.5837ZM73.2103 14.5837C73.2103 17.3433 75.3938 19.648 78.0018 19.648C80.5794 19.648 82.7628 17.3433 82.7628 14.5837C82.7628 11.8544 80.5794 9.54967 78.0018 9.54967C75.3938 9.54967 73.2103 11.8544 73.2103 14.5837Z" fill="#2D343F"/>
<path d="M44.2771 6.63757L39.6092 3.90404L48.9449 3.90404L44.2771 6.63757Z" fill="#2D343F"/>
<path d="M4.63514 2.29057C4.63514 3.4126 3.69506 4.41334 2.54269 4.41334C1.36001 4.41334 0.419922 3.4126 0.419922 2.29057C0.419922 1.16853 1.36001 0.19812 2.54269 0.19812C3.69506 0.19812 4.63514 1.16853 4.63514 2.29057Z" fill="#01B0FF"/>
</svg>
