<svg width="33" height="33" viewBox="0 0 33 33" fill="none" xmlns="http://www.w3.org/2000/svg">
<path d="M24.3643 9.66263C24.2842 9.64928 24.1908 9.64928 24.1107 9.66263C22.2683 9.59588 20.7998 8.08731 20.7998 6.21828C20.7998 4.3092 22.3351 2.77393 24.2442 2.77393C26.1532 2.77393 27.6885 4.32255 27.6885 6.21828C27.6752 8.08731 26.2066 9.59588 24.3643 9.66263Z" stroke="#01B0FF" stroke-width="2.00253" stroke-linecap="round" stroke-linejoin="round"/>
<path d="M22.9902 19.3816C24.8192 19.6886 26.8351 19.3682 28.2502 18.4204C30.1326 17.1655 30.1326 15.1095 28.2502 13.8546C26.8218 12.9067 24.7792 12.5863 22.9502 12.9067" stroke="#01B0FF" stroke-width="2.00253" stroke-linecap="round" stroke-linejoin="round"/>
<path d="M8.30467 9.66263C8.38477 9.64928 8.47822 9.64928 8.55832 9.66263C10.4006 9.59588 11.8692 8.08731 11.8692 6.21828C11.8692 4.3092 10.3339 2.77393 8.42482 2.77393C6.51574 2.77393 4.98047 4.32255 4.98047 6.21828C4.99382 8.08731 6.46234 9.59588 8.30467 9.66263Z" stroke="#01B0FF" stroke-width="2.00253" stroke-linecap="round" stroke-linejoin="round"/>
<path d="M9.67957 19.3816C7.85059 19.6886 5.83472 19.3682 4.4196 18.4204C2.53722 17.1655 2.53722 15.1095 4.4196 13.8546C5.84807 12.9067 7.89064 12.5863 9.71962 12.9067" stroke="#01B0FF" stroke-width="2.00253" stroke-linecap="round" stroke-linejoin="round"/>
<path d="M16.3536 19.6353C16.2735 19.6219 16.18 19.6219 16.0999 19.6353C14.2576 19.5685 12.7891 18.06 12.7891 16.1909C12.7891 14.2819 14.3243 12.7466 16.2334 12.7466C18.1425 12.7466 19.6778 14.2952 19.6778 16.1909C19.6644 18.06 18.1959 19.5819 16.3536 19.6353Z" stroke="#01B0FF" stroke-width="2.00253" stroke-linecap="round" stroke-linejoin="round"/>
<path d="M12.4684 23.8404C10.586 25.0953 10.586 27.1512 12.4684 28.4062C14.6045 29.8346 18.1022 29.8346 20.2382 28.4062C22.1206 27.1512 22.1206 25.0953 20.2382 23.8404C18.1156 22.4253 14.6045 22.4253 12.4684 23.8404Z" stroke="#01B0FF" stroke-width="2.00253" stroke-linecap="round" stroke-linejoin="round"/>
</svg>
