<svg width="48" height="48" viewBox="0 0 48 48" fill="none" xmlns="http://www.w3.org/2000/svg">
<g clip-path="url(#clip0_3018_1135)">
<path d="M19.6963 31.1924L25.7673 37.2635M23.646 11.8076L28.7318 6.72188C29.633 5.82067 31.0941 5.82067 31.9953 6.72188L42.6772 17.4038C43.6871 18.4136 43.6871 20.0508 42.6772 21.0607V21.0607M23.646 11.8076L19.2266 16.227C18.1527 17.301 18.1527 19.0422 19.2266 20.1161V20.1161C20.3005 21.1901 22.0417 21.1901 23.1157 20.1161L24.3531 18.8787C26.1105 17.1213 28.9597 17.1213 30.7171 18.8787L37.4346 25.5962C37.4346 25.5962 37.4346 25.5962 37.4346 25.5962C37.4346 25.5962 39.5559 27.7175 37.6114 29.6621C35.6668 31.6066 33.5455 29.4853 33.5455 29.4853M23.646 11.8076L21.5247 9.68629C19.1816 7.34315 15.3826 7.34315 13.0394 9.68629L5.96835 16.7574C3.62521 19.1005 3.62521 22.8995 5.96835 25.2426L21.8783 41.1525C21.8783 41.1525 21.8783 41.1525 21.8783 41.1525C21.8783 41.1525 23.9996 43.2739 25.9441 41.3293C27.8887 39.3848 25.7673 37.2635 25.7673 37.2635M33.5455 29.4853L27.4744 23.4142M33.5455 29.4853C33.5455 29.4853 35.6668 31.6066 33.7223 33.5511C31.7777 35.4957 29.6564 33.3744 29.6564 33.3744M29.6564 33.3744L23.5854 27.3033M29.6564 33.3744C29.6564 33.3744 31.7777 35.4957 29.8332 37.4402C27.8887 39.3848 25.7673 37.2635 25.7673 37.2635" stroke="#01B0FF" stroke-width="3" stroke-linecap="round"/>
</g>
<defs>
<clipPath id="clip0_3018_1135">
<rect width="48" height="48" fill="white"/>
</clipPath>
</defs>
</svg>
