<svg width="48" height="48" viewBox="0 0 48 48" fill="none" xmlns="http://www.w3.org/2000/svg">
<path fill-rule="evenodd" clip-rule="evenodd" d="M24 5.5C19.0935 5.5 14.3879 7.4491 10.9185 10.9185C7.4491 14.3879 5.5 19.0935 5.5 24C5.5 28.9065 7.4491 33.6121 10.9185 37.0815C14.3879 40.5509 19.0935 42.5 24 42.5C28.9065 42.5 33.6121 40.5509 37.0815 37.0815C40.5509 33.6121 42.5 28.9065 42.5 24C42.5 19.0935 40.5509 14.3879 37.0815 10.9185C33.6121 7.4491 28.9065 5.5 24 5.5ZM2.5 24C2.5 12.126 12.126 2.5 24 2.5C35.874 2.5 45.5 12.126 45.5 24C45.5 35.874 35.874 45.5 24 45.5C12.126 45.5 2.5 35.874 2.5 24ZM34.358 26.68C34.4952 26.8215 34.6031 26.9887 34.6757 27.172C34.7482 27.3552 34.7839 27.551 34.7808 27.748C34.7776 27.9451 34.7356 28.1396 34.6573 28.3205C34.5789 28.5013 34.4656 28.6649 34.324 28.802C33.984 29.132 33.624 29.45 33.252 29.754L33.688 30.644C33.9496 31.1747 34.104 31.7518 34.1424 32.3422C34.1807 32.9327 34.1023 33.5249 33.9115 34.0849C33.7207 34.645 33.4213 35.162 33.0305 35.6062C32.6396 36.0504 32.165 36.4132 31.6338 36.6738C31.1026 36.9344 30.5253 37.0877 29.9348 37.1249C29.3442 37.1621 28.7522 37.0825 28.1925 36.8906C27.6328 36.6987 27.1164 36.3984 26.6729 36.0067C26.2295 35.615 25.8676 35.1397 25.608 34.608L25.062 33.496C22.5458 33.9874 19.9531 33.928 17.462 33.322C17.2684 33.2766 17.0858 33.1931 16.9248 33.0765C16.7638 32.9598 16.6276 32.8123 16.5241 32.6426C16.4206 32.4728 16.3518 32.2842 16.3219 32.0876C16.2919 31.8911 16.3014 31.6905 16.3496 31.4977C16.3979 31.3048 16.484 31.1234 16.603 30.9641C16.7219 30.8048 16.8714 30.6707 17.0426 30.5697C17.2139 30.4687 17.4035 30.4027 17.6005 30.3757C17.7975 30.3486 17.9978 30.3609 18.19 30.412C20.45 30.978 23.046 30.984 25.682 30.278C28.318 29.572 30.562 28.268 32.236 26.648C32.5217 26.3716 32.9055 26.2199 33.303 26.2262C33.7006 26.2326 34.0793 26.3965 34.356 26.682M28.008 32.692L28.3 33.288C28.3867 33.4649 28.5073 33.623 28.6551 33.7532C28.8029 33.8835 28.9748 33.9834 29.1612 34.0472C29.3476 34.111 29.5447 34.1374 29.7413 34.125C29.9379 34.1127 30.1301 34.0617 30.307 33.975C30.4839 33.8883 30.642 33.7677 30.7722 33.6199C30.9025 33.4721 31.0024 33.3001 31.0662 33.1138C31.13 32.9274 31.1564 32.7303 31.144 32.5337C31.1317 32.3371 31.0807 32.1449 30.994 31.968L30.74 31.45C29.8643 31.937 28.9507 32.3524 28.008 32.692Z" fill="#01B0FF"/>
<circle cx="17.2737" cy="21.8416" r="2.15845" fill="#01B0FF"/>
<circle cx="28.844" cy="18.6284" r="2.15845" fill="#01B0FF"/>
</svg>
